<svg xmlns="http://www.w3.org/2000/svg" version="1.1" xmlns:xlink="http://www.w3.org/1999/xlink" xmlns:svgjs="http://svgjs.dev/svgjs" width="128" height="128" viewBox="0 0 128 128"><g transform="matrix(0.8046875,0,0,0.8046875,12.506335372881338,13.895648621853141)"><svg viewBox="0 0 59 58" data-background-color="#ffffff" preserveAspectRatio="xMidYMid meet" height="125" width="128" xmlns="http://www.w3.org/2000/svg" xmlns:xlink="http://www.w3.org/1999/xlink"><g id="tight-bounds" transform="matrix(1,0,0,1,-0.0036289999999894462,-0.10876080533108734)"><svg viewBox="0 0 59.00725799999999 58.21752161066217" height="58.21752161066217" width="59.00725799999999"><g><svg viewBox="0 0 59.00725799999999 58.21752161066217" height="58.21752161066217" width="59.00725799999999"><g><svg viewBox="0 0 59.00725799999999 58.21752161066217" height="58.21752161066217" width="59.00725799999999"><g><svg viewBox="0 0 59.00725799999999 58.21752161066217" height="58.21752161066217" width="59.00725799999999"><g id="textblocktransform"><svg viewBox="0 0 59.00725799999999 58.21752161066217" height="58.21752161066217" width="59.00725799999999" id="textblock"><g><svg viewBox="0 0 59.00725799999999 58.21752161066217" height="58.21752161066217" width="59.00725799999999"><g><svg viewBox="0 0 59.00725799999999 58.21752161066217" height="58.21752161066217" width="59.00725799999999"><g><svg xmlns="http://www.w3.org/2000/svg" xmlns:xlink="http://www.w3.org/1999/xlink" version="1.1" x="0" y="0" viewBox="5.00025 5.603027776661499 89.9994999808748 88.7949722233385" enable-background="new 0 0 100 100" xml:space="preserve" height="58.21752161066217" width="59.00725799999999" class="icon-icon-0" data-fill-palette-color="accent" id="icon-0"><g fill="#00bfff" data-fill-palette-color="accent"><path d="M93.926 7.859c-0.097-0.163-0.214-0.312-0.349-0.445l-0.398-0.4c-0.132-0.129-0.278-0.242-0.434-0.337-4.462-2.678-12.771-0.174-18.521 5.58l-8.416 8.414-38.194-2.546c-0.062-0.003-0.123-0.006-0.185-0.006-3.17 0.044-5.575 1.787-6.126 4.446-0.542 2.612 0.829 6.561 6.472 9.113l18.231 9.116c-2.979 3.5-8.587 10.266-11.385 14.817l-10.62 1.181c-1.269 0.141-2.183 1.284-2.042 2.555l0.653 5.886c0.117 1.047 0.926 1.884 1.972 2.033l7.661 1.094 1.096 7.663c0.149 1.043 0.984 1.854 2.033 1.972l5.886 0.653c0.606 0.065 1.219-0.11 1.699-0.492 0.48-0.384 0.785-0.94 0.855-1.552l1.178-10.621c4.553-2.797 11.317-8.402 14.818-11.382l9.116 18.231c2.218 4.902 5.49 6.58 8.024 6.58 0.381 0 0.747-0.038 1.087-0.108 2.66-0.551 4.403-2.956 4.444-6.126 0-0.062 0-0.123-0.003-0.185l-2.549-38.198 8.414-8.414C94.099 20.629 96.604 12.321 93.926 7.859zM75.92 32.266c-0.472 0.472-0.718 1.125-0.674 1.79l2.61 39.141c-0.023 0.706-0.231 1.468-0.756 1.576-0.785 0.159-2.566-0.744-3.979-3.884-0.012-0.029-0.026-0.057-0.041-0.086l-10.464-20.93c-0.319-0.642-0.92-1.099-1.623-1.236-0.146-0.029-0.296-0.043-0.445-0.043-0.557 0-1.099 0.201-1.523 0.576-0.117 0.101-11.725 10.272-17.326 13.383-0.653 0.363-1.093 1.022-1.175 1.767l-1.052 9.475-1.808-0.202L36.61 66.21c-0.085-0.577-0.372-1.075-0.782-1.427-0.354-0.415-0.853-0.706-1.433-0.788L27.01 62.94l-0.199-1.808 9.475-1.055c0.744-0.082 1.403-0.519 1.767-1.175 3.111-5.602 13.28-17.208 13.383-17.324 0.472-0.539 0.668-1.267 0.53-1.972-0.138-0.703-0.592-1.302-1.233-1.623L29.802 27.52c-0.029-0.015-0.059-0.026-0.088-0.041-3.138-1.409-4.049-3.188-3.885-3.976 0.108-0.524 0.873-0.734 1.579-0.757l39.141 2.609c0.665 0.041 1.315-0.199 1.79-0.672l9.154-9.157c4.614-4.614 10.351-5.996 12.604-5.019 0.973 2.256-0.407 7.989-5.021 12.604L75.92 32.266z" fill="#00bfff" data-fill-palette-color="accent"></path><path d="M26.061 46.546c0.902-0.902 0.902-2.367 0-3.269-0.902-0.904-2.367-0.904-3.27 0L5.679 60.389c-0.905 0.903-0.905 2.367 0 3.271 0.451 0.451 1.043 0.679 1.635 0.679s1.184-0.228 1.635-0.679L26.061 46.546z" fill="#00bfff" data-fill-palette-color="accent"></path><path d="M53.312 75.652L38.515 90.45c-0.905 0.903-0.905 2.366 0 3.269 0.451 0.453 1.043 0.679 1.635 0.679s1.184-0.226 1.635-0.679l14.798-14.797c0.905-0.902 0.905-2.367 0-3.27C55.68 74.747 54.215 74.747 53.312 75.652z" fill="#00bfff" data-fill-palette-color="accent"></path><path d="M24.64 72.876L9.379 88.139c-0.905 0.902-0.905 2.367 0 3.27 0.451 0.451 1.043 0.676 1.635 0.676s1.184-0.225 1.635-0.676l15.261-15.261c0.902-0.904 0.902-2.367 0-3.271C27.007 71.973 25.542 71.973 24.64 72.876z" fill="#00bfff" data-fill-palette-color="accent"></path></g></svg></g></svg></g></svg></g></svg></g></svg></g></svg></g></svg></g><defs></defs></svg><rect width="59.00725799999999" height="58.21752161066217" fill="none" stroke="none" visibility="hidden"></rect></g></svg></g></svg>