<svg xmlns="http://www.w3.org/2000/svg" version="1.1" xmlns:xlink="http://www.w3.org/1999/xlink" xmlns:svgjs="http://svgjs.dev/svgjs" width="1000" height="623" viewBox="0 0 1000 623"><g transform="matrix(1,0,0,1,-0.6060606060605664,0.2522267206477409)"><svg viewBox="0 0 396 247" data-background-color="#ffffff" preserveAspectRatio="xMidYMid meet" height="623" width="1000" xmlns="http://www.w3.org/2000/svg" xmlns:xlink="http://www.w3.org/1999/xlink"><g id="tight-bounds" transform="matrix(1,0,0,1,0.2400000000000091,-0.09999999999999432)"><svg viewBox="0 0 395.52 247.2" height="247.2" width="395.52"><g><svg></svg></g><g><svg viewBox="0 0 395.52 247.2" height="247.2" width="395.52"><g transform="matrix(1,0,0,1,75.54432000000001,95.40344010262325)"><svg viewBox="0 0 244.43135999999996 56.3931197947535" height="56.3931197947535" width="244.43135999999996"><g><svg viewBox="0 0 244.43135999999996 56.3931197947535" height="56.3931197947535" width="244.43135999999996"><g><svg viewBox="0 0 330.3639306146026 76.2187499796054" height="56.3931197947535" width="244.43135999999996"><g transform="matrix(1,0,0,1,85.93257061460264,19.725691926704442)"><svg viewBox="0 0 244.43135999999998 36.76736612619652" height="36.76736612619652" width="244.43135999999998"><g id="textblocktransform"><svg viewBox="0 0 244.43135999999998 36.76736612619652" height="36.76736612619652" width="244.43135999999998" id="textblock"><g><svg viewBox="0 0 244.43135999999998 36.76736612619652" height="36.76736612619652" width="244.43135999999998"><g transform="matrix(1,0,0,1,0,0)"><svg width="244.43135999999998" viewBox="0.6 -37.75 255.92999999999998 38.5" height="36.76736612619652" data-palette-color="#0074d9"><path d="M0.6-34.55L26.25-34.55 25.55-29.3 16.55-29.3 16.55 0 9.9 0 9.9-29.3 0.6-29.3 0.6-34.55ZM43.4-27.15Q44.85-27.15 46.05-26.8L46.05-26.8 44.95-20.6Q43.75-20.9 42.6-20.9L42.6-20.9Q40.25-20.9 38.9-19.23 37.55-17.55 36.75-14.1L36.75-14.1 36.75 0 30.35 0 30.35-26.45 35.9-26.45 36.5-21.25Q37.45-24.1 39.25-25.63 41.05-27.15 43.4-27.15L43.4-27.15ZM69.6-7Q69.6-5.45 70.07-4.73 70.55-4 71.6-3.6L71.6-3.6 70.25 0.65Q68 0.45 66.57-0.45 65.15-1.35 64.4-3.2L64.4-3.2Q63.05-1.2 61.02-0.23 59 0.75 56.5 0.75L56.5 0.75Q52.55 0.75 50.25-1.5 47.95-3.75 47.95-7.4L47.95-7.4Q47.95-11.7 51.07-13.98 54.2-16.25 60-16.25L60-16.25 63.3-16.25 63.3-17.75Q63.3-20.3 62.12-21.33 60.95-22.35 58.35-22.35L58.35-22.35Q55.45-22.35 51.35-20.95L51.35-20.95 49.85-25.3Q54.8-27.2 59.45-27.2L59.45-27.2Q69.6-27.2 69.6-18.1L69.6-18.1 69.6-7ZM58.2-3.9Q61.45-3.9 63.3-7.15L63.3-7.15 63.3-12.5 60.65-12.5Q54.45-12.5 54.45-7.9L54.45-7.9Q54.45-6 55.4-4.95 56.35-3.9 58.2-3.9L58.2-3.9ZM91.99-26.45L98.59-26.45 89.99 0 82.34 0 73.59-26.45 80.54-26.45 86.19-5.15 91.99-26.45ZM124.24-13.85Q124.24-13.35 124.09-11.25L124.09-11.25 107.49-11.25Q107.79-7.4 109.49-5.75 111.19-4.1 113.99-4.1L113.99-4.1Q115.74-4.1 117.29-4.67 118.84-5.25 120.59-6.45L120.59-6.45 123.24-2.8Q118.84 0.75 113.44 0.75L113.44 0.75Q107.39 0.75 104.12-2.95 100.84-6.65 100.84-13.05L100.84-13.05Q100.84-17.1 102.24-20.33 103.64-23.55 106.29-25.38 108.94-27.2 112.59-27.2L112.59-27.2Q118.14-27.2 121.19-23.68 124.24-20.15 124.24-13.85L124.24-13.85ZM117.89-15.4L117.89-15.7Q117.89-22.65 112.74-22.65L112.74-22.65Q110.39-22.65 109.07-20.93 107.74-19.2 107.49-15.4L107.49-15.4 117.89-15.4ZM136.24 0.75Q133.19 0.75 131.46-1.03 129.74-2.8 129.74-6.05L129.74-6.05 129.74-37.05 136.14-37.75 136.14-6.25Q136.14-4.4 137.64-4.4L137.64-4.4Q138.39-4.4 139.14-4.65L139.14-4.65 140.49-0.15Q138.49 0.75 136.24 0.75L136.24 0.75ZM157.43-34.55L177.48-34.55 176.78-29.65 164.03-29.65 164.03-20 175.13-20 175.13-15.1 164.03-15.1 164.03-4.95 177.68-4.95 177.68 0 157.43 0 157.43-34.55ZM203.28-7Q203.28-5.45 203.76-4.73 204.23-4 205.28-3.6L205.28-3.6 203.93 0.65Q201.68 0.45 200.26-0.45 198.83-1.35 198.08-3.2L198.08-3.2Q196.73-1.2 194.71-0.23 192.68 0.75 190.18 0.75L190.18 0.75Q186.23 0.75 183.93-1.5 181.63-3.75 181.63-7.4L181.63-7.4Q181.63-11.7 184.76-13.98 187.88-16.25 193.68-16.25L193.68-16.25 196.98-16.25 196.98-17.75Q196.98-20.3 195.81-21.33 194.63-22.35 192.03-22.35L192.03-22.35Q189.13-22.35 185.03-20.95L185.03-20.95 183.53-25.3Q188.48-27.2 193.13-27.2L193.13-27.2Q203.28-27.2 203.28-18.1L203.28-18.1 203.28-7ZM191.88-3.9Q195.13-3.9 196.98-7.15L196.98-7.15 196.98-12.5 194.33-12.5Q188.13-12.5 188.13-7.9L188.13-7.9Q188.13-6 189.08-4.95 190.03-3.9 191.88-3.9L191.88-3.9ZM219.38-27.2Q224.73-27.2 228.78-24.05L228.78-24.05 226.28-20.3Q222.88-22.45 219.63-22.45L219.63-22.45Q217.73-22.45 216.68-21.73 215.63-21 215.63-19.8L215.63-19.8Q215.63-18.9 216.08-18.3 216.53-17.7 217.7-17.18 218.88-16.65 221.18-16L221.18-16Q225.48-14.85 227.55-12.95 229.63-11.05 229.63-7.65L229.63-7.65Q229.63-3.7 226.43-1.48 223.23 0.75 218.48 0.75L218.48 0.75Q215.23 0.75 212.55-0.25 209.88-1.25 207.93-3L207.93-3 211.13-6.6Q214.58-4 218.33-4L218.33-4Q220.48-4 221.75-4.85 223.03-5.7 223.03-7.2L223.03-7.2Q223.03-8.35 222.55-9.03 222.08-9.7 220.85-10.23 219.63-10.75 217.03-11.5L217.03-11.5Q212.98-12.6 211.08-14.58 209.18-16.55 209.18-19.5L209.18-19.5Q209.18-21.7 210.45-23.45 211.73-25.2 214.05-26.2 216.38-27.2 219.38-27.2L219.38-27.2ZM256.53-13.85Q256.53-13.35 256.38-11.25L256.38-11.25 239.78-11.25Q240.08-7.4 241.78-5.75 243.48-4.1 246.28-4.1L246.28-4.1Q248.03-4.1 249.58-4.67 251.13-5.25 252.88-6.45L252.88-6.45 255.53-2.8Q251.13 0.75 245.73 0.75L245.73 0.75Q239.68 0.75 236.4-2.95 233.13-6.65 233.13-13.05L233.13-13.05Q233.13-17.1 234.53-20.33 235.93-23.55 238.58-25.38 241.23-27.2 244.88-27.2L244.88-27.2Q250.43-27.2 253.48-23.68 256.53-20.15 256.53-13.85L256.53-13.85ZM250.18-15.4L250.18-15.7Q250.18-22.65 245.03-22.65L245.03-22.65Q242.68-22.65 241.35-20.93 240.03-19.2 239.78-15.4L239.78-15.4 250.18-15.4Z" opacity="1" transform="matrix(1,0,0,1,0,0)" fill="#0074d9" class="wordmark-text-0" data-fill-palette-color="primary" id="text-0"></path></svg></g></svg></g></svg></g></svg></g><g><svg viewBox="0 0 77.25267788899467 76.2187499796054" height="76.2187499796054" width="77.25267788899467"><g><svg xmlns="http://www.w3.org/2000/svg" xmlns:xlink="http://www.w3.org/1999/xlink" version="1.1" x="0" y="0" viewBox="5.00025 5.603027776661499 89.9994999808748 88.7949722233385" enable-background="new 0 0 100 100" xml:space="preserve" height="76.2187499796054" width="77.25267788899467" class="icon-icon-0" data-fill-palette-color="accent" id="icon-0"><g fill="#00bfff" data-fill-palette-color="accent"><path d="M93.926 7.859c-0.097-0.163-0.214-0.312-0.349-0.445l-0.398-0.4c-0.132-0.129-0.278-0.242-0.434-0.337-4.462-2.678-12.771-0.174-18.521 5.58l-8.416 8.414-38.194-2.546c-0.062-0.003-0.123-0.006-0.185-0.006-3.17 0.044-5.575 1.787-6.126 4.446-0.542 2.612 0.829 6.561 6.472 9.113l18.231 9.116c-2.979 3.5-8.587 10.266-11.385 14.817l-10.62 1.181c-1.269 0.141-2.183 1.284-2.042 2.555l0.653 5.886c0.117 1.047 0.926 1.884 1.972 2.033l7.661 1.094 1.096 7.663c0.149 1.043 0.984 1.854 2.033 1.972l5.886 0.653c0.606 0.065 1.219-0.11 1.699-0.492 0.48-0.384 0.785-0.94 0.855-1.552l1.178-10.621c4.553-2.797 11.317-8.402 14.818-11.382l9.116 18.231c2.218 4.902 5.49 6.58 8.024 6.58 0.381 0 0.747-0.038 1.087-0.108 2.66-0.551 4.403-2.956 4.444-6.126 0-0.062 0-0.123-0.003-0.185l-2.549-38.198 8.414-8.414C94.099 20.629 96.604 12.321 93.926 7.859zM75.92 32.266c-0.472 0.472-0.718 1.125-0.674 1.79l2.61 39.141c-0.023 0.706-0.231 1.468-0.756 1.576-0.785 0.159-2.566-0.744-3.979-3.884-0.012-0.029-0.026-0.057-0.041-0.086l-10.464-20.93c-0.319-0.642-0.92-1.099-1.623-1.236-0.146-0.029-0.296-0.043-0.445-0.043-0.557 0-1.099 0.201-1.523 0.576-0.117 0.101-11.725 10.272-17.326 13.383-0.653 0.363-1.093 1.022-1.175 1.767l-1.052 9.475-1.808-0.202L36.61 66.21c-0.085-0.577-0.372-1.075-0.782-1.427-0.354-0.415-0.853-0.706-1.433-0.788L27.01 62.94l-0.199-1.808 9.475-1.055c0.744-0.082 1.403-0.519 1.767-1.175 3.111-5.602 13.28-17.208 13.383-17.324 0.472-0.539 0.668-1.267 0.53-1.972-0.138-0.703-0.592-1.302-1.233-1.623L29.802 27.52c-0.029-0.015-0.059-0.026-0.088-0.041-3.138-1.409-4.049-3.188-3.885-3.976 0.108-0.524 0.873-0.734 1.579-0.757l39.141 2.609c0.665 0.041 1.315-0.199 1.79-0.672l9.154-9.157c4.614-4.614 10.351-5.996 12.604-5.019 0.973 2.256-0.407 7.989-5.021 12.604L75.92 32.266z" fill="#00bfff" data-fill-palette-color="accent"></path><path d="M26.061 46.546c0.902-0.902 0.902-2.367 0-3.269-0.902-0.904-2.367-0.904-3.27 0L5.679 60.389c-0.905 0.903-0.905 2.367 0 3.271 0.451 0.451 1.043 0.679 1.635 0.679s1.184-0.228 1.635-0.679L26.061 46.546z" fill="#00bfff" data-fill-palette-color="accent"></path><path d="M53.312 75.652L38.515 90.45c-0.905 0.903-0.905 2.366 0 3.269 0.451 0.453 1.043 0.679 1.635 0.679s1.184-0.226 1.635-0.679l14.798-14.797c0.905-0.902 0.905-2.367 0-3.27C55.68 74.747 54.215 74.747 53.312 75.652z" fill="#00bfff" data-fill-palette-color="accent"></path><path d="M24.64 72.876L9.379 88.139c-0.905 0.902-0.905 2.367 0 3.27 0.451 0.451 1.043 0.676 1.635 0.676s1.184-0.225 1.635-0.676l15.261-15.261c0.902-0.904 0.902-2.367 0-3.271C27.007 71.973 25.542 71.973 24.64 72.876z" fill="#00bfff" data-fill-palette-color="accent"></path></g></svg></g></svg></g></svg></g></svg></g></svg></g><g><path d="M0 123.6c0-68.262 55.338-123.6 123.6-123.6 57.41 0 105.678 39.141 119.574 92.192h-1.269c-13.866-52.367-61.578-90.966-118.305-90.965-67.585 0-122.373 54.788-122.373 122.373 0 67.585 54.788 122.373 122.373 122.373 56.727 0 104.44-38.599 118.305-90.965h1.269c-13.897 53.052-62.165 92.192-119.574 92.192-68.262 0-123.6-55.338-123.6-123.6z" fill="#9edfff" stroke="transparent" data-fill-palette-color="tertiary"></path></g></svg></g><defs></defs></svg><rect width="395.52" height="247.2" fill="none" stroke="none" visibility="hidden"></rect></g></svg></g></svg>